<svg xmlns="http://www.w3.org/2000/svg" width="640" height="358" viewBox="0 0 640 358" font-family="-apple-system,BlinkMacSystemFont,Segoe UI,Helvetica,Arial,sans-serif" role="img" aria-label="Coding skills over time for aliammari1">
  <defs><clipPath id="cr-reveal"><rect x="16" y="54" width="0" height="220"><animate attributeName="width" from="0" to="608" dur="1.4s" begin="0s" fill="freeze" calcMode="spline" keyTimes="0;1" keySplines="0.25 0.1 0.25 1"/></rect></clipPath></defs>
  <rect width="100%" height="100%" rx="10" fill="#ffffff"/>
  <rect x="0.5" y="0.5" width="639" height="357" rx="10" fill="none" stroke="#d0d7de" stroke-width="1"/>
  <text x="16" y="26" fill="#1f2328" font-size="15" font-weight="700">Skills over time</text>
  <text x="16" y="42" fill="#57606a" font-size="11">@aliammari1 · commit-weighted language activity · 2022–2026</text>
  <text x="624" y="42" fill="#57606a" font-size="9.5" text-anchor="end">self-hosted · GitHub API</text>
  <g><line x1="16" y1="54" x2="624" y2="54" stroke="#eaeef2" stroke-width="1"/><line x1="16" y1="109" x2="624" y2="109" stroke="#eaeef2" stroke-width="1"/><line x1="16" y1="164" x2="624" y2="164" stroke="#eaeef2" stroke-width="1"/><line x1="16" y1="219" x2="624" y2="219" stroke="#eaeef2" stroke-width="1"/><line x1="16" y1="274" x2="624" y2="274" stroke="#eaeef2" stroke-width="1"/></g>
  <g clip-path="url(#cr-reveal)"><polygon points="16 246.97 168 243.73 320 196.16 472 54 624 178.86 624 274 16 274" fill="#8b949e" fill-opacity="0.92" stroke="#ffffff" stroke-width="0.5"/><polygon points="16 250.22 168 250.17 320 207.72 472 79.91 624 180.95 624 274 16 274" fill="#3572A5" fill-opacity="0.92" stroke="#ffffff" stroke-width="0.5"/><polygon points="16 250.22 168 250.17 320 207.72 472 94.06 624 184.26 624 274 16 274" fill="#A97BFF" fill-opacity="0.92" stroke="#ffffff" stroke-width="0.5"/><polygon points="16 250.22 168 250.17 320 215.74 472 103.67 624 187.06 624 274 16 274" fill="#f1e05a" fill-opacity="0.92" stroke="#ffffff" stroke-width="0.5"/><polygon points="16 250.22 168 253.99 320 216.23 472 128.97 624 190.19 624 274 16 274" fill="#b07219" fill-opacity="0.92" stroke="#ffffff" stroke-width="0.5"/><polygon points="16 254.27 168 254.74 320 228.01 472 150.92 624 191.03 624 274 16 274" fill="#f34b7d" fill-opacity="0.92" stroke="#ffffff" stroke-width="0.5"/><polygon points="16 274 168 267.17 320 231.83 472 161.39 624 192.2 624 274 16 274" fill="#3178c6" fill-opacity="0.92" stroke="#ffffff" stroke-width="0.5"/><polygon points="16 274 168 273.86 320 239.12 472 203.51 624 199.18 624 274 16 274" fill="#e34c26" fill-opacity="0.92" stroke="#ffffff" stroke-width="0.5"/><polygon points="16 274 168 274 320 263.85 472 248.13 624 203.73 624 274 16 274" fill="#00B4AB" fill-opacity="0.92" stroke="#ffffff" stroke-width="0.5"/></g>
  <g><text x="16" y="292" fill="#57606a" font-size="11" text-anchor="middle">2022</text><text x="168" y="292" fill="#57606a" font-size="11" text-anchor="middle">2023</text><text x="320" y="292" fill="#57606a" font-size="11" text-anchor="middle">2024</text><text x="472" y="292" fill="#57606a" font-size="11" text-anchor="middle">2025</text><text x="624" y="292" fill="#57606a" font-size="11" text-anchor="middle">2026</text></g>
  <g><rect x="16" y="299" width="11" height="11" rx="2" fill="#00B4AB"/><text x="32" y="309" fill="#24292f" font-size="12">Dart</text><rect x="73.4" y="299" width="11" height="11" rx="2" fill="#e34c26"/><text x="89.4" y="309" fill="#24292f" font-size="12">HTML</text><rect x="130.8" y="299" width="11" height="11" rx="2" fill="#3178c6"/><text x="146.8" y="309" fill="#24292f" font-size="12">TypeScript</text><rect x="227.8" y="299" width="11" height="11" rx="2" fill="#f34b7d"/><text x="243.8" y="309" fill="#24292f" font-size="12">C++</text><rect x="278.6" y="299" width="11" height="11" rx="2" fill="#b07219"/><text x="294.6" y="309" fill="#24292f" font-size="12">Java</text><rect x="336" y="299" width="11" height="11" rx="2" fill="#f1e05a"/><text x="352" y="309" fill="#24292f" font-size="12">JavaScript</text><rect x="433" y="299" width="11" height="11" rx="2" fill="#A97BFF"/><text x="449" y="309" fill="#24292f" font-size="12">Kotlin</text><rect x="503.6" y="299" width="11" height="11" rx="2" fill="#3572A5"/><text x="519.6" y="309" fill="#24292f" font-size="12">Python</text><rect x="16" y="321" width="11" height="11" rx="2" fill="#8b949e"/><text x="32" y="331" fill="#24292f" font-size="12">Other</text></g>
</svg>