<svg xmlns="http://www.w3.org/2000/svg" width="640" height="336" viewBox="0 0 640 336" font-family="-apple-system,BlinkMacSystemFont,Segoe UI,Helvetica,Arial,sans-serif" role="img" aria-label="Coding skills over time for aliammari1">
  <defs><clipPath id="cr-reveal"><rect x="16" y="54" width="0" height="220"><animate attributeName="width" from="0" to="608" dur="1.4s" begin="0s" fill="freeze" calcMode="spline" keyTimes="0;1" keySplines="0.25 0.1 0.25 1"/></rect></clipPath></defs>
  <rect width="100%" height="100%" rx="10" fill="#0d1117"/>
  <rect x="0.5" y="0.5" width="639" height="335" rx="10" fill="none" stroke="#30363d" stroke-width="1"/>
  <text x="16" y="26" fill="#f0f6fc" font-size="15" font-weight="700">Skills over time</text>
  <text x="16" y="42" fill="#8b949e" font-size="11">@aliammari1 · commit-weighted language activity · 2022–2026</text>
  <text x="624" y="42" fill="#8b949e" font-size="9.5" text-anchor="end">self-hosted · GitHub API</text>
  <g><line x1="16" y1="54" x2="624" y2="54" stroke="#21262d" stroke-width="1"/><line x1="16" y1="109" x2="624" y2="109" stroke="#21262d" stroke-width="1"/><line x1="16" y1="164" x2="624" y2="164" stroke="#21262d" stroke-width="1"/><line x1="16" y1="219" x2="624" y2="219" stroke="#21262d" stroke-width="1"/><line x1="16" y1="274" x2="624" y2="274" stroke="#21262d" stroke-width="1"/></g>
  <g clip-path="url(#cr-reveal)"><polygon points="16 225.97 168 220.2 320 229.81 472 54 624 107.8 624 274 16 274" fill="#8b949e" fill-opacity="0.92" stroke="#0d1117" stroke-width="0.5"/><polygon points="16 226.11 168 230.97 320 234.54 472 71.03 624 115.58 624 274 16 274" fill="#b07219" fill-opacity="0.92" stroke="#0d1117" stroke-width="0.5"/><polygon points="16 233.3 168 232.3 320 234.75 472 72.39 624 115.58 624 274 16 274" fill="#555555" fill-opacity="0.92" stroke="#0d1117" stroke-width="0.5"/><polygon points="16 238.93 168 233.24 320 238.52 472 79 624 115.6 624 274 16 274" fill="#3572A5" fill-opacity="0.92" stroke="#0d1117" stroke-width="0.5"/><polygon points="16 238.93 168 233.24 320 238.52 472 104.15 624 121.47 624 274 16 274" fill="#A97BFF" fill-opacity="0.92" stroke="#0d1117" stroke-width="0.5"/><polygon points="16 238.93 168 233.24 320 252.76 472 121.23 624 126.45 624 274 16 274" fill="#f1e05a" fill-opacity="0.92" stroke="#0d1117" stroke-width="0.5"/><polygon points="16 238.93 168 240.02 320 252.86 472 164.79 624 131.98 624 274 16 274" fill="#f34b7d" fill-opacity="0.92" stroke="#0d1117" stroke-width="0.5"/><polygon points="16 274 168 262.1 320 259.65 472 183.4 624 134.06 624 274 16 274" fill="#3178c6" fill-opacity="0.92" stroke="#0d1117" stroke-width="0.5"/><polygon points="16 274 168 274 320 272.6 472 258.26 624 146.52 624 274 16 274" fill="#00B4AB" fill-opacity="0.92" stroke="#0d1117" stroke-width="0.5"/></g>
  <g><text x="16" y="292" fill="#8b949e" font-size="11" text-anchor="middle">2022</text><text x="168" y="292" fill="#8b949e" font-size="11" text-anchor="middle">2023</text><text x="320" y="292" fill="#8b949e" font-size="11" text-anchor="middle">2024</text><text x="472" y="292" fill="#8b949e" font-size="11" text-anchor="middle">2025</text><text x="624" y="292" fill="#8b949e" font-size="11" text-anchor="middle">2026</text></g>
  <g><rect x="16" y="299" width="11" height="11" rx="2" fill="#00B4AB"/><text x="32" y="309" fill="#c9d1d9" font-size="12">Dart</text><rect x="73.4" y="299" width="11" height="11" rx="2" fill="#3178c6"/><text x="89.4" y="309" fill="#c9d1d9" font-size="12">TypeScript</text><rect x="170.4" y="299" width="11" height="11" rx="2" fill="#f34b7d"/><text x="186.4" y="309" fill="#c9d1d9" font-size="12">C++</text><rect x="221.2" y="299" width="11" height="11" rx="2" fill="#f1e05a"/><text x="237.2" y="309" fill="#c9d1d9" font-size="12">JavaScript</text><rect x="318.2" y="299" width="11" height="11" rx="2" fill="#A97BFF"/><text x="334.2" y="309" fill="#c9d1d9" font-size="12">Kotlin</text><rect x="388.8" y="299" width="11" height="11" rx="2" fill="#3572A5"/><text x="404.8" y="309" fill="#c9d1d9" font-size="12">Python</text><rect x="459.4" y="299" width="11" height="11" rx="2" fill="#555555"/><text x="475.4" y="309" fill="#c9d1d9" font-size="12">C</text><rect x="497" y="299" width="11" height="11" rx="2" fill="#b07219"/><text x="513" y="309" fill="#c9d1d9" font-size="12">Java</text><rect x="554.4" y="299" width="11" height="11" rx="2" fill="#8b949e"/><text x="570.4" y="309" fill="#c9d1d9" font-size="12">Other</text></g>
</svg>